<svg width="136" height="15" viewBox="0 0 136 15" fill="none" xmlns="http://www.w3.org/2000/svg">
<path d="M10.386 10.931C10.518 10.931 10.635 10.982 10.737 11.084L11.691 12.119C11.163 12.773 10.512 13.274 9.738 13.622C8.97 13.97 8.046 14.144 6.966 14.144C6 14.144 5.13 13.979 4.356 13.649C3.588 13.319 2.931 12.86 2.385 12.272C1.839 11.684 1.419 10.982 1.125 10.166C0.837 9.35 0.693 8.459 0.693 7.493C0.693 6.515 0.849 5.621 1.161 4.811C1.473 3.995 1.911 3.293 2.475 2.705C3.045 2.117 3.723 1.661 4.509 1.337C5.295 1.007 6.165 0.842 7.119 0.842C8.067 0.842 8.907 0.998 9.639 1.31C10.377 1.622 11.004 2.03 11.52 2.534L10.71 3.659C10.662 3.731 10.599 3.794 10.521 3.848C10.449 3.902 10.347 3.929 10.215 3.929C10.125 3.929 10.032 3.905 9.936 3.857C9.84 3.803 9.735 3.74 9.621 3.668C9.507 3.59 9.375 3.506 9.225 3.416C9.075 3.326 8.901 3.245 8.703 3.173C8.505 3.095 8.274 3.032 8.01 2.984C7.752 2.93 7.452 2.903 7.11 2.903C6.528 2.903 5.994 3.008 5.508 3.218C5.028 3.422 4.614 3.722 4.266 4.118C3.918 4.508 3.648 4.988 3.456 5.558C3.264 6.122 3.168 6.767 3.168 7.493C3.168 8.225 3.27 8.876 3.474 9.446C3.684 10.016 3.966 10.496 4.32 10.886C4.674 11.276 5.091 11.576 5.571 11.786C6.051 11.99 6.567 12.092 7.119 12.092C7.449 12.092 7.746 12.074 8.01 12.038C8.28 12.002 8.526 11.945 8.748 11.867C8.976 11.789 9.189 11.69 9.387 11.57C9.591 11.444 9.792 11.291 9.99 11.111C10.05 11.057 10.113 11.015 10.179 10.985C10.245 10.949 10.314 10.931 10.386 10.931ZM20.9724 12.002V14H13.3494V0.985999H15.7704V12.002H20.9724ZM34.6549 7.493C34.6549 8.447 34.4959 9.332 34.1779 10.148C33.8659 10.958 33.4219 11.66 32.8459 12.254C32.2699 12.848 31.5769 13.313 30.7669 13.649C29.9569 13.979 29.0569 14.144 28.0669 14.144C27.0829 14.144 26.1859 13.979 25.3759 13.649C24.5659 13.313 23.8699 12.848 23.2879 12.254C22.7119 11.66 22.2649 10.958 21.9469 10.148C21.6289 9.332 21.4699 8.447 21.4699 7.493C21.4699 6.539 21.6289 5.657 21.9469 4.847C22.2649 4.031 22.7119 3.326 23.2879 2.732C23.8699 2.138 24.5659 1.676 25.3759 1.346C26.1859 1.01 27.0829 0.842 28.0669 0.842C28.7269 0.842 29.3479 0.92 29.9299 1.076C30.5119 1.226 31.0459 1.442 31.5319 1.724C32.0179 2 32.4529 2.339 32.8369 2.741C33.2269 3.137 33.5569 3.581 33.8269 4.073C34.0969 4.565 34.3009 5.099 34.4389 5.675C34.5829 6.251 34.6549 6.857 34.6549 7.493ZM32.1799 7.493C32.1799 6.779 32.0839 6.14 31.8919 5.576C31.6999 5.006 31.4269 4.523 31.0729 4.127C30.7189 3.731 30.2869 3.428 29.7769 3.218C29.2729 3.008 28.7029 2.903 28.0669 2.903C27.4309 2.903 26.8579 3.008 26.3479 3.218C25.8439 3.428 25.4119 3.731 25.0519 4.127C24.6979 4.523 24.4249 5.006 24.2329 5.576C24.0409 6.14 23.9449 6.779 23.9449 7.493C23.9449 8.207 24.0409 8.849 24.2329 9.419C24.4249 9.983 24.6979 10.463 25.0519 10.859C25.4119 11.249 25.8439 11.549 26.3479 11.759C26.8579 11.969 27.4309 12.074 28.0669 12.074C28.7029 12.074 29.2729 11.969 29.7769 11.759C30.2869 11.549 30.7189 11.249 31.0729 10.859C31.4269 10.463 31.6999 9.983 31.8919 9.419C32.0839 8.849 32.1799 8.207 32.1799 7.493ZM42.019 12.047C42.487 12.047 42.904 11.969 43.27 11.813C43.642 11.657 43.954 11.438 44.206 11.156C44.458 10.874 44.65 10.532 44.782 10.13C44.92 9.728 44.989 9.278 44.989 8.78V0.985999H47.41V8.78C47.41 9.554 47.284 10.271 47.032 10.931C46.786 11.585 46.429 12.152 45.961 12.632C45.499 13.106 44.935 13.478 44.269 13.748C43.603 14.012 42.853 14.144 42.019 14.144C41.179 14.144 40.426 14.012 39.76 13.748C39.094 13.478 38.527 13.106 38.059 12.632C37.597 12.152 37.24 11.585 36.988 10.931C36.742 10.271 36.619 9.554 36.619 8.78V0.985999H39.04V8.771C39.04 9.269 39.106 9.719 39.238 10.121C39.376 10.523 39.571 10.868 39.823 11.156C40.081 11.438 40.393 11.657 40.759 11.813C41.131 11.969 41.551 12.047 42.019 12.047ZM61.6964 7.493C61.6964 8.447 61.5374 9.323 61.2194 10.121C60.9014 10.919 60.4544 11.606 59.8784 12.182C59.3024 12.758 58.6094 13.205 57.7994 13.523C56.9894 13.841 56.0894 14 55.0994 14H50.1404V0.985999H55.0994C56.0894 0.985999 56.9894 1.148 57.7994 1.472C58.6094 1.79 59.3024 2.237 59.8784 2.813C60.4544 3.383 60.9014 4.067 61.2194 4.865C61.5374 5.663 61.6964 6.539 61.6964 7.493ZM59.2124 7.493C59.2124 6.779 59.1164 6.14 58.9244 5.576C58.7384 5.006 58.4654 4.526 58.1054 4.136C57.7514 3.74 57.3194 3.437 56.8094 3.227C56.3054 3.017 55.7354 2.912 55.0994 2.912H52.5704V12.074H55.0994C55.7354 12.074 56.3054 11.969 56.8094 11.759C57.3194 11.549 57.7514 11.249 58.1054 10.859C58.4654 10.463 58.7384 9.983 58.9244 9.419C59.1164 8.849 59.2124 8.207 59.2124 7.493ZM68.7028 12.11C69.1528 12.11 69.5308 12.056 69.8368 11.948C70.1428 11.84 70.3858 11.696 70.5658 11.516C70.7518 11.336 70.8838 11.126 70.9618 10.886C71.0458 10.646 71.0878 10.391 71.0878 10.121C71.0878 9.839 71.0428 9.587 70.9528 9.365C70.8628 9.137 70.7218 8.945 70.5298 8.789C70.3378 8.627 70.0888 8.504 69.7828 8.42C69.4828 8.336 69.1198 8.294 68.6938 8.294H66.2548V12.11H68.7028ZM66.2548 2.858V6.62H68.1808C69.0088 6.62 69.6328 6.47 70.0528 6.17C70.4788 5.87 70.6918 5.393 70.6918 4.739C70.6918 4.061 70.4998 3.578 70.1158 3.29C69.7318 3.002 69.1318 2.858 68.3158 2.858H66.2548ZM68.3158 0.985999C69.1678 0.985999 69.8968 1.067 70.5028 1.229C71.1088 1.391 71.6038 1.622 71.9878 1.922C72.3778 2.222 72.6628 2.585 72.8428 3.011C73.0228 3.437 73.1128 3.917 73.1128 4.451C73.1128 4.757 73.0678 5.051 72.9778 5.333C72.8878 5.609 72.7468 5.87 72.5548 6.116C72.3688 6.356 72.1288 6.575 71.8348 6.773C71.5468 6.971 71.2018 7.139 70.7998 7.277C72.5878 7.679 73.4818 8.645 73.4818 10.175C73.4818 10.727 73.3768 11.237 73.1668 11.705C72.9568 12.173 72.6508 12.578 72.2488 12.92C71.8468 13.256 71.3518 13.52 70.7638 13.712C70.1758 13.904 69.5038 14 68.7478 14H63.8338V0.985999H68.3158ZM80.9194 12.047C81.3874 12.047 81.8044 11.969 82.1704 11.813C82.5424 11.657 82.8544 11.438 83.1064 11.156C83.3584 10.874 83.5504 10.532 83.6824 10.13C83.8204 9.728 83.8894 9.278 83.8894 8.78V0.985999H86.3104V8.78C86.3104 9.554 86.1844 10.271 85.9324 10.931C85.6864 11.585 85.3294 12.152 84.8614 12.632C84.3994 13.106 83.8354 13.478 83.1694 13.748C82.5034 14.012 81.7534 14.144 80.9194 14.144C80.0794 14.144 79.3264 14.012 78.6604 13.748C77.9944 13.478 77.4274 13.106 76.9594 12.632C76.4974 12.152 76.1404 11.585 75.8884 10.931C75.6424 10.271 75.5194 9.554 75.5194 8.78V0.985999H77.9404V8.771C77.9404 9.269 78.0064 9.719 78.1384 10.121C78.2764 10.523 78.4714 10.868 78.7234 11.156C78.9814 11.438 79.2934 11.657 79.6594 11.813C80.0314 11.969 80.4514 12.047 80.9194 12.047ZM100.597 7.493C100.597 8.447 100.438 9.323 100.12 10.121C99.8018 10.919 99.3548 11.606 98.7788 12.182C98.2028 12.758 97.5098 13.205 96.6998 13.523C95.8898 13.841 94.9898 14 93.9998 14H89.0408V0.985999H93.9998C94.9898 0.985999 95.8898 1.148 96.6998 1.472C97.5098 1.79 98.2028 2.237 98.7788 2.813C99.3548 3.383 99.8018 4.067 100.12 4.865C100.438 5.663 100.597 6.539 100.597 7.493ZM98.1128 7.493C98.1128 6.779 98.0168 6.14 97.8248 5.576C97.6388 5.006 97.3658 4.526 97.0058 4.136C96.6518 3.74 96.2198 3.437 95.7098 3.227C95.2058 3.017 94.6358 2.912 93.9998 2.912H91.4708V12.074H93.9998C94.6358 12.074 95.2058 11.969 95.7098 11.759C96.2198 11.549 96.6518 11.249 97.0058 10.859C97.3658 10.463 97.6388 9.983 97.8248 9.419C98.0168 8.849 98.1128 8.207 98.1128 7.493ZM113.462 7.475V12.74C112.802 13.226 112.097 13.583 111.347 13.811C110.603 14.033 109.805 14.144 108.953 14.144C107.891 14.144 106.928 13.979 106.064 13.649C105.206 13.319 104.471 12.86 103.859 12.272C103.253 11.684 102.785 10.982 102.455 10.166C102.125 9.35 101.96 8.459 101.96 7.493C101.96 6.515 102.119 5.618 102.437 4.802C102.755 3.986 103.205 3.284 103.787 2.696C104.375 2.108 105.086 1.652 105.92 1.328C106.754 1.004 107.69 0.842 108.728 0.842C109.256 0.842 109.748 0.884 110.204 0.967999C110.666 1.052 111.092 1.169 111.482 1.319C111.878 1.463 112.238 1.64 112.562 1.85C112.886 2.06 113.183 2.291 113.453 2.543L112.76 3.641C112.652 3.815 112.511 3.923 112.337 3.965C112.163 4.001 111.974 3.956 111.77 3.83C111.572 3.716 111.374 3.602 111.176 3.488C110.978 3.374 110.756 3.275 110.51 3.191C110.27 3.107 109.997 3.038 109.691 2.984C109.391 2.93 109.043 2.903 108.647 2.903C108.005 2.903 107.423 3.011 106.901 3.227C106.385 3.443 105.944 3.752 105.578 4.154C105.212 4.556 104.93 5.039 104.732 5.603C104.534 6.167 104.435 6.797 104.435 7.493C104.435 8.237 104.54 8.903 104.75 9.491C104.966 10.073 105.266 10.568 105.65 10.976C106.04 11.378 106.508 11.687 107.054 11.903C107.6 12.113 108.209 12.218 108.881 12.218C109.361 12.218 109.79 12.167 110.168 12.065C110.546 11.963 110.915 11.825 111.275 11.651V9.293H109.637C109.481 9.293 109.358 9.251 109.268 9.167C109.184 9.077 109.142 8.969 109.142 8.843V7.475H113.462ZM118.225 2.912V6.521H122.779V8.384H118.225V12.065H124.003V14H115.795V0.985999H124.003V2.912H118.225ZM135.238 2.975H131.314V14H128.893V2.975H124.969V0.985999H135.238V2.975Z" fill="white"/>
</svg>
